HIERARCHY
ROOT Hips
{
  OFFSET 0 0 0
  CHANNELS 6 Xposition Yposition Zposition Zrotation Yrotation Xrotation
  JOINT LeftThigh
  {
    OFFSET 8.409438 0 -5.917753
    CHANNELS 3 Zrotation Yrotation Xrotation
    JOINT LeftLeg
    {
      OFFSET 0 0 -42.358652
      CHANNELS 3 Zrotation Yrotation Xrotation
      JOINT LeftFoot
      {
        OFFSET 0 0 -39.357303
        CHANNELS 3 Zrotation Yrotation Xrotation
      }
    }
  }
  JOINT RightThigh
  {
    OFFSET -8.409438 0 -5.917753
    CHANNELS 3 Zrotation Yrotation Xrotation
    JOINT RightLeg
    {
      OFFSET 0 0 -42.358652
      CHANNELS 3 Zrotation Yrotation Xrotation
      JOINT RightFoot
      {
        OFFSET 0 0 -39.357303
        CHANNELS 3 Zrotation Yrotation Xrotation
      }
    }
  }
  JOINT SpineLow
  {
    OFFSET 0 0 4.719101
    CHANNELS 3 Zrotation Yrotation Xrotation
    JOINT SpineMid
    {
      OFFSET 0 0 12.899191
      CHANNELS 3 Zrotation Yrotation Xrotation
      JOINT Chest
      {
        OFFSET 0 0 12.899191
        CHANNELS 3 Zrotation Yrotation Xrotation
        JOINT LeftShoulder
        {
          OFFSET 7.550562 1.41573 9.438202
          CHANNELS 3 Zrotation Yrotation Xrotation
          JOINT LeftArm
          {
            OFFSET 9.155056 0 4.247191
            CHANNELS 3 Zrotation Yrotation Xrotation
            JOINT LeftForearm
            {
              OFFSET 0 0 25.771955
              CHANNELS 3 Zrotation Yrotation Xrotation
              JOINT LeftHand
              {
                OFFSET 0 0 25.197169
                CHANNELS 3 Zrotation Yrotation Xrotation
              }
            }
          }
        }
        JOINT RightShoulder
        {
          OFFSET -7.550562 1.41573 9.438202
          CHANNELS 3 Zrotation Yrotation Xrotation
          JOINT RightArm
          {
            OFFSET -9.155056 0 4.247191
            CHANNELS 3 Zrotation Yrotation Xrotation
            JOINT RightForearm
            {
              OFFSET 0 0 -25.771955
              CHANNELS 3 Zrotation Yrotation Xrotation
              JOINT RightHand
              {
                OFFSET 0 0 -25.197169
                CHANNELS 3 Zrotation Yrotation Xrotation
              }
            }
          }
        }
        JOINT Neck
        {
          OFFSET 0 0 15.101124
          CHANNELS 3 Zrotation Yrotation Xrotation
          JOINT Head
          {
            OFFSET 0 0 11.325843
            CHANNELS 3 Zrotation Yrotation Xrotation
            End Site
            {
              OFFSET 0 0 14.157303
            }
          }
        }
      }
    }
  }
}
MOTION
Frames: 11
Frame Time: 0.0
0.0  89.887642  0.0  15.456289  -22.26728  -125.86773  37.055537  -17.335303  -74.265893  -42.908933  11.297452  26.927482  18.888342  3.367009  3.529266  -17.600218  5.820581  -0.397221  19.696855  11.051685  40.507624  5.588243  6.220449  3.497625  -1.044785  3.443181  4.287861  -2.247152  9.561604  11.643448  -2.247152  9.561604  11.643447  -18.198837  13.541338  4.575247  -118.993223  56.855583  -69.364204  -36.092769  -21.362491  68.326289  70.030324  17.727999  -6.048761  8.687331  -12.527145  18.406636  133.389506  30.264495  62.079136  -18.635547  0.392183  -100.627855  115.977048  10.723459  -43.483369  6.523823  -4.816527  2.915623  4.913135  -3.581874  2.237253  
0.0  89.887642  0.0  15.056697  -22.57497  -125.005559  41.164928  -12.34281  -78.467804  -43.480325  19.962932  32.50014  18.050134  4.106643  2.907752  -18.688174  4.314108  -0.53138  16.998265  14.37358  40.18484  7.10312  8.175245  3.077068  -0.718885  3.300872  4.070581  -1.409325  9.113733  11.091799  -1.409325  9.113733  11.091799  -19.909248  13.851005  5.539293  -119.466796  57.123749  -69.387713  -35.3865  -21.710745  68.226207  69.773301  17.724787  -5.863118  6.685699  -12.699562  19.799503  132.330691  30.83661  61.754385  -15.999162  -2.090597  -101.477704  116.315416  10.507714  -45.517934  5.009408  -5.057429  3.388055  3.782849  -3.765761  2.581143  
0.0  89.887642  0.0  14.612651  -23.127733  -124.11775  42.337316  -13.099571  -82.382566  -36.199665  28.121075  41.14806  14.113742  3.335839  1.832884  -20.415197  3.921499  -0.895986  14.489956  17.970537  39.340125  11.199481  7.998766  2.202116  -0.503805  3.036942  3.673263  -0.915312  8.35548  10.025842  -0.915312  8.355481  10.025842  -20.662141  15.579851  7.012218  -119.205791  57.298685  -69.044995  -34.802174  -21.924584  68.560692  69.522411  18.197319  -5.119612  5.261334  -11.833855  22.475611  131.660291  31.795635  61.421723  -14.105741  -3.997082  -102.139178  116.478703  10.510107  -47.255096  3.822783  -4.765774  4.663784  2.902074  -3.545589  3.525851  
0.0  89.887642  0.0  14.03708  -23.255343  -123.591973  42.369643  -20.978752  -86.68311  -22.583061  36.572559  50.477023  12.424726  3.179082  1.531383  -21.372979  4.584628  -1.367493  12.424055  19.297678  38.65229  15.075895  6.938438  2.259983  -0.674087  2.742479  3.306473  -1.468648  7.57194  8.996735  -1.468648  7.57194  8.996735  -19.235057  17.771497  7.907268  -119.752817  57.531738  -69.428344  -34.401734  -21.711514  68.710942  69.549911  18.443167  -4.218974  5.793708  -10.267124  24.976128  131.034035  32.926227  60.951859  -13.329438  -4.999731  -102.546478  116.557185  11.216268  -48.487884  3.77033  -3.949307  5.977782  2.865634  -2.925583  4.506158  
0.0  89.887642  0.0  13.351749  -23.089176  -123.301079  42.904044  -30.399379  -89.939092  -6.44377  44.646834  59.819462  12.19732  2.900431  1.56016  -20.372464  5.365198  -1.587254  12.860246  16.730644  39.527509  13.658712  6.311717  2.666211  -1.150584  2.411719  3.060181  -2.842518  6.724285  8.273769  -2.842518  6.724285  8.273769  -16.200591  20.150435  8.230096  -121.122988  57.591971  -70.321132  -33.961859  -21.449764  68.869213  69.320026  18.673932  -3.600789  7.544249  -7.940572  26.535053  130.59387  34.024354  60.131171  -13.546015  -5.070712  -102.584356  116.371958  12.622548  -49.293325  4.694775  -2.70831  6.991495  3.551978  -1.977978  5.263827  
0.0  89.887642  0.0  12.631489  -22.366102  -122.634874  43.082989  -36.792569  -90.458096  8.675561  49.887768  69.101257  11.691373  2.65926  1.250284  -19.141153  5.519964  -2.51314  14.588559  12.796188  40.880857  10.228163  5.775781  3.425602  -1.586314  2.156465  2.861969  -4.084046  6.070142  7.697196  -4.084046  6.070142  7.697196  -13.715911  21.639045  8.804113  -123.495067  57.086126  -72.17145  -33.853996  -20.83362  69.46021  69.324083  19.067828  -2.863012  8.393337  -6.482226  27.113134  129.756663  34.576549  59.054591  -14.017983  -4.557164  -102.438689  116.361458  13.912725  -49.57187  5.302454  -1.701047  7.645716  3.998576  -1.209779  5.749138  
0.0  89.887642  0.0  12.031502  -21.932929  -121.633659  42.259057  -40.063222  -87.716987  20.306818  53.063734  76.363031  11.871975  2.598107  1.326696  -17.780939  4.931065  -3.837788  15.841382  9.859548  42.185983  7.611019  5.210768  3.807283  -1.605902  2.07213  2.822058  -4.150523  5.839916  7.590209  -4.150523  5.839916  7.590208  -13.565673  20.758302  9.294309  -127.023989  55.863972  -75.16786  -34.099134  -20.012533  70.445561  69.53918  19.565104  -2.030158  7.06402  -7.101886  25.988021  127.985185  34.660389  57.583934  -13.771743  -3.894573  -102.435973  116.733074  14.492095  -49.50871  4.834021  -1.603187  7.492228  3.645587  -1.143415  5.631903  
0.0  89.887642  0.0  11.600409  -21.500168  -120.355148  40.745849  -40.388239  -83.477109  28.644823  54.830178  83.167148  11.946187  2.921045  1.491143  -16.807194  4.426697  -5.250382  15.978779  8.473244  43.045133  6.572412  4.965151  3.73978  -1.452407  2.076081  2.745987  -3.736997  5.82919  7.395485  -3.736997  5.82919  7.395485  -14.360059  18.909057  9.955011  -131.39448  54.486267  -79.412355  -34.5894  -19.060289  71.827284  69.608181  20.03143  -1.163156  5.025433  -8.332635  24.907524  125.978632  34.684329  55.833509  -13.399267  -3.498378  -102.482577  116.748361  14.341831  -49.424363  3.891662  -1.909956  7.230396  2.941568  -1.386723  5.434719  
0.0  89.887642  0.0  11.575282  -20.585425  -119.049165  38.888344  -39.294991  -80.678178  38.375474  54.277448  93.742264  11.196222  3.242221  1.432248  -16.723709  4.661001  -6.772403  15.169495  8.490248  43.327551  6.418478  4.890217  3.531546  -1.414654  2.217138  2.742113  -3.619102  6.20972  7.382353  -3.619102  6.20972  7.382353  -14.931723  16.55886  9.930145  -135.547198  53.083366  -83.769306  -34.773144  -17.943415  73.406342  69.258662  20.457665  -0.532118  3.991681  -10.006717  23.152415  121.664784  36.065916  53.682002  -10.830512  -3.254028  -103.604458  115.937365  13.626156  -49.742138  3.235747  -2.415479  6.43429  2.452217  -1.77784  4.837956  
0.0  89.887642  0.0  11.594029  -19.936088  -117.379868  36.65024  -35.911275  -78.186747  45.029463  51.151435  103.889841  9.413457  2.852082  1.005028  -17.166389  4.476289  -8.233562  13.254431  10.30454  42.817093  7.523611  5.139769  3.350654  -1.426825  2.29811  2.734603  -3.64461  6.431619  7.357235  -3.64461  6.431619  7.357235  -15.291875  14.518151  9.074  -139.840705  52.066121  -88.114755  -34.907569  -17.188981  74.755553  68.731983  20.772396  0.099906  3.853102  -11.268904  21.091259  118.845277  36.344111  51.827405  -9.819329  -3.991942  -104.324481  114.348091  12.483371  -50.73479  2.830425  -2.754114  5.304285  2.146521  -2.041259  3.990312  
0.0  89.887642  0.0  11.344651  -19.871518  -115.359182  34.710414  -30.640819  -75.410416  46.76041  48.092168  111.099676  8.033711  2.383813  0.60053  -17.774923  3.539187  -9.710913  11.221874  12.558206  42.034402  9.343442  5.620797  3.130097  -1.414396  2.244921  2.663183  -3.623117  6.281398  7.164941  -3.623117  6.281398  7.164941  -15.339571  13.234919  8.196137  -143.186507  50.959659  -92.540802  -34.750335  -15.351078  76.469167  68.345696  20.891481  0.548994  4.182053  -11.902356  19.445161  116.006937  36.976717  49.812834  -8.37876  -5.384439  -105.235402  112.333295  11.099964  -52.130869  2.560009  -2.823281  4.242292  1.939341  -2.099858  3.192975  
